<?xml version="1.0" encoding="UTF-8" standalone="no"?>
<svg
   width="1836.129"
   height="548.01953"
   viewBox="0 0 1836.129 548.01953"
   version="1.1"
   id="svg36"
   sodipodi:docname="bismillah.svg"
   inkscape:version="1.4 (86a8ad7, 2024-10-11)"
   xmlns:inkscape="http://www.inkscape.org/namespaces/inkscape"
   xmlns:sodipodi="http://sodipodi.sourceforge.net/DTD/sodipodi-0.dtd"
   xmlns="http://www.w3.org/2000/svg"
   xmlns:svg="http://www.w3.org/2000/svg">
  <defs
     id="defs36" />
  <sodipodi:namedview
     id="namedview36"
     pagecolor="#ffffff"
     bordercolor="#B4941F"
     borderopacity="0.25"
     inkscape:showpageshadow="2"
     inkscape:pageopacity="0.0"
     inkscape:pagecheckerboard="0"
     inkscape:deskcolor="#d1d1d1"
     inkscape:zoom="0.9075"
     inkscape:cx="917.90634"
     inkscape:cy="273.8292"
     inkscape:window-width="3840"
     inkscape:window-height="2054"
     inkscape:window-x="-11"
     inkscape:window-y="-11"
     inkscape:window-maximized="1"
     inkscape:current-layer="svg36" />
  <path
     fill-rule="nonzero"
     fill="#B4941F"
     fill-opacity="1"
     d="m 1305.1523,147.37109 c 0,4.53907 -1,9.44922 -3.0195,14.75 -2.7695,6.5625 -6.4297,9.83204 -10.9687,9.83204 -7.0625,0 -11.9727,-4.79297 -14.75,-14.3711 -3.2813,12.35156 -9.3321,18.53125 -18.1524,18.53125 -3.2773,0 -6.1797,-1.64062 -8.6992,-4.92187 -2.7812,-4.03125 -4.1602,-9.19922 -4.1602,-15.5 V 140.5625 c 0,-1.26172 -0.8906,-2.14062 -2.6484,-2.65234 -1.7695,-0.5 -2.6523,-1.75782 -2.6523,-3.77735 0,-3.28125 1.5117,-6.5625 4.539,-9.83203 2.5235,-2.77734 4.4102,-4.16015 5.6836,-4.16015 1.7578,0 2.6367,3.26953 2.6367,9.83203 0,3.52734 -0.25,6.48828 -0.7578,8.89062 -0.5,2.39844 -0.75,4.34766 -0.75,5.85938 0,3.77734 0.75,7.1875 2.2696,10.21093 1.5117,3.77735 3.6484,5.67969 6.4296,5.67969 3.2813,0 6.3594,-1.52344 9.2618,-4.54297 2.8984,-3.02734 4.3476,-6.42968 4.3476,-10.20703 0,-2.27344 -0.6875,-6.24219 -2.0781,-11.92187 -1.3828,-5.66797 -2.082,-9.26953 -2.082,-10.78125 0,-1.25782 0.6328,-3.20703 1.8906,-5.85938 1.2617,-2.64844 2.1484,-3.96875 2.6484,-3.96875 1.2617,0 2.711,3.78125 4.3516,11.33985 1.6406,7.57031 2.4609,13.12109 2.4609,16.64843 0,10.33985 4.0313,15.5 12.0977,15.5 3.5312,0 5.6836,-1.75781 6.4336,-5.28906 -6.8125,-11.84766 -10.211,-21.05078 -10.211,-27.60937 0,-3.53125 0.8789,-6.8086 2.6485,-9.83204 1.2617,-2.01953 2.1406,-3.02734 2.6523,-3.02734 0.5,0 0.8789,1.25781 1.1289,3.77734 0.25,3.28125 0.7578,6.0625 1.5078,8.32032 0.2618,0.25 2.0235,4.54297 5.3008,12.86328 1.7617,4.78906 2.6406,8.5664 2.6406,11.34765"
     id="path1" />
  <path
     fill-rule="nonzero"
     fill="#B4941F"
     fill-opacity="1"
     d="m 1663.4023,159.45313 c 0,2.76953 -3.2812,8.6875 -9.8281,17.76953 -7.5703,10.58984 -14.75,18.27734 -21.5625,23.07031 -4.289,3.02734 -18.539,7.82031 -42.7383,14.36719 -4.539,0.76172 -6.8125,1.14062 -6.8125,1.14062 0.5,-0.50781 2.1407,-1.76953 4.9219,-3.77734 3.0195,-2.52344 11.7188,-7.44141 26.0899,-14.75 13.3711,-7.32031 21.1796,-11.98047 23.4492,-14 0.5117,-0.5 0.7617,-1.01172 0.7617,-1.51172 0,-3.03125 -12.1016,-4.53906 -36.3125,-4.53906 0,0 -4.5391,0.1289 -13.6094,0.3789 -4.8008,0.25 -7.1875,0 -7.1875,-0.76172 0,-0.5 0.6289,-1.75781 1.8867,-3.77734 l 8.7032,-14.37109 c 2.5195,-4.28907 7.1797,-6.94141 13.9882,-7.94922 2.2696,-0.5 7.8204,-0.75 16.6485,-0.75 27.7305,0 41.6015,3.14844 41.6015,9.46094"
     id="path2" />
  <path
     fill-rule="nonzero"
     fill="#B4941F"
     fill-opacity="1"
     d="m 1723.4922,500.57032 c 34.0391,-12.3516 70.3516,-25.5898 108.9297,-39.7109 2.0195,-0.7579 3.1523,-1.0079 3.4023,-0.7579 0.5078,0.5079 0.3789,1.6407 -0.3711,3.4063 -2.2695,5.293 -4.039,8.4453 -5.3008,9.457 -32.2812,11.5938 -69.9687,26.3477 -113.0898,44.25 1.5195,-5.0429 3.6602,-10.5898 6.4297,-16.6445"
     id="path3" />
  <path
     fill-rule="nonzero"
     fill="#B4941F"
     fill-opacity="1"
     d="m 1788.0313,302.57812 c 0,-3.5312 -2.8985,-10.9687 -8.6993,-22.3164 -7.3086,-14.37109 -12.4804,-26.21875 -15.5078,-35.55078 -6.3008,-18.91016 -10.4609,-36.5586 -12.4804,-52.94922 -1.0118,-6.55859 -1.6407,-10.46875 -1.8907,-11.73047 -1.0117,-3.53125 -2.7695,-6.92969 -5.289,-10.21094 1.7578,-5.79687 4.5273,-13.73828 8.3203,-23.82812 1.2578,-3.01953 2.3867,-4.53906 3.3984,-4.53906 0.7578,0 2.1485,1.51953 4.1602,4.53906 9.8398,13.37109 18.0312,25.46875 24.5898,36.30859 2.7695,4.28906 4.1602,7.44141 4.1602,9.46094 0,1.26172 -0.6289,1.89062 -1.8907,1.89062 -2.2695,0 -6.6914,-2.01953 -13.2382,-6.05078 -0.5118,0 -1.0118,0.37891 -1.5118,1.12891 2.2696,8.07031 5.9219,19.17187 10.961,33.29297 10.8398,31.50781 16.2695,54.45698 16.2695,68.82808 0,12.6055 -3.0312,25.3438 -9.082,38.1993 -7.8789,15.5351 -18.2188,23.9297 -31.0078,25.1757 v 0.543 c -18.4102,0 -31.6524,-11.7265 -39.711,-35.1758 -1.0078,-3.2773 -2.1484,-3.2773 -3.4101,0 -10.5899,26.9805 -25.5899,40.4688 -45.0078,40.4688 -19.6719,0 -31.2618,-12.3516 -34.793,-37.0664 -0.2578,-2.0156 -0.6289,-3.0235 -1.1367,-3.0235 -0.25,0 -1.0117,1.0079 -2.2735,3.0235 -4.789,7.8203 -11.5976,15.7617 -20.4179,23.8281 -14.8711,13.1133 -29.5,19.6719 -43.8789,19.6719 -9.8321,0 -18.2735,-4.4141 -25.3321,-13.2422 -3.789,-4.7891 -8.3281,-12.9844 -13.6211,-24.582 -4.0273,-8.5743 -7.3086,-12.8594 -9.8398,-12.8594 -4.5273,0 -11.3398,4.793 -20.418,14.375 -9.832,10.082 -14.75,18.7812 -14.75,26.0937 0,6.3047 2.8985,12.6094 8.6992,18.9102 l -0.02,0.2734 c 16.4883,-5.4765 29.8789,-8.2148 40.1485,-8.2148 10.5898,0 18.9101,4.414 24.9609,13.2383 6.0586,8.8242 9.082,20.4257 9.082,34.7968 0,11.8516 -2.5898,21.6211 -7.75,29.3125 -5.1719,7.6875 -12.0429,11.5352 -20.6211,11.5352 -19.1601,0 -36.5625,-14.625 -52.1914,-43.875 -19.9179,7.8164 -42.8711,21.9375 -68.8398,42.3594 -18.9102,15.6367 -37.8203,31.1406 -56.7305,46.5195 -14.1172,10.5938 -26.8476,15.8867 -38.1992,15.8867 -12.3516,0 -23.0703,-5.4179 -32.1484,-16.2617 -9.5821,-11.6016 -14.3711,-25.5898 -14.3711,-41.9805 0,-22.6953 9.3281,-52.3242 27.9882,-88.8828 2.0235,-3.7851 3.5313,-5.6719 4.543,-5.6719 0.5,0 0.7578,0.504 0.7578,1.5118 0,3.5312 -4.039,16.2617 -12.1094,38.1992 -8.0703,21.9375 -12.1015,39.082 -12.1015,51.4375 0,9.832 2.2734,17.6523 6.8125,23.4492 5.039,6.3047 11.7187,9.457 20.039,9.457 13.8711,0 26.9805,-4.539 39.3399,-13.6172 15.1211,-13.1093 30.25,-26.0937 45.3789,-38.957 29.7109,-24.9609 55.9531,-42.7578 78.7422,-53.3906 -2.832,-8.707 -4,-15.8711 -3.5117,-21.4961 2.2695,-22.4414 9.832,-42.2344 22.6914,-59.3789 11.5976,-15.1328 22.3203,-22.6953 32.1484,-22.6953 3.7813,0 7.6914,4.414 11.7227,13.2383 6.0586,12.8593 10.2187,20.9257 12.4765,24.207 6.5625,8.5703 14.5117,12.8594 23.8321,12.8594 15.1289,0 29.6289,-5.4219 43.5,-16.2657 1.2617,-1.0078 6.9296,-6.8046 17.0195,-17.3984 9.332,-10.0859 14.3711,-15.125 15.1289,-15.125 2.0117,0 2.3906,2.2695 1.1328,6.8086 -2.0195,5.7969 -3.0312,9.4531 -3.0312,10.9648 0,4.2852 1.7695,9.0782 5.3007,14.3711 4.5391,7.3125 10.7188,10.9727 18.5391,10.9727 20.1719,0 37.4414,-14.5 51.8086,-43.4961 1.5195,-3.0234 3.2812,-4.5391 5.293,-4.5391 1.5195,0 2.2695,1.3828 2.2695,4.1563 0,0.7617 -0.1211,2.2695 -0.3711,4.539 -0.2617,2.2696 -0.3789,3.9102 -0.3789,4.918 0,8.5742 2.5781,15.5078 7.75,20.8047 4.4297,4.5313 9.9102,7.1211 16.4492,7.7773 v -0.2109 c 17.3985,0 28.1211,-4.918 32.1485,-14.75 z m -244.668,117.625 c 5.3008,0 7.9492,-1.6406 7.9492,-4.918 0,-4.0351 -3.0312,-7.1875 -9.0781,-9.457 -7.0625,-3.0273 -16.7735,-3.5312 -29.1211,-1.5117 9.3203,10.5898 19.4101,15.8867 30.25,15.8867"
     id="path4" />
  <path
     fill-rule="nonzero"
     fill="#B4941F"
     fill-opacity="1"
     d="m 1745.5508,438.40232 c -0.5,-0.5039 -0.5,-1.2617 0,-2.2695 l 12.1015,-24.2031 c 0.7618,-1.5157 1.5196,-2.2696 2.2696,-2.2696 1.2695,0 6.5625,3.211 15.8906,9.6446 9.3281,6.4297 13.9883,10.2734 13.9883,11.5351 0,4.0313 -4.1485,12.6055 -12.4766,25.7149 -1.0117,1.7656 -2.0234,2.2695 -3.0234,1.5156 -9.0781,-7.0586 -18.6602,-13.6172 -28.75,-19.668"
     id="path5" />
  <path
     fill-rule="nonzero"
     fill="#B4941F"
     fill-opacity="1"
     d="m 1404.8516,62.792969 c 0,-11.85156 -1.8985,-21.5625 -5.6797,-29.12109 0,-4.28907 3.4101,-14.5 10.2187,-30.64063 1,-2.01953 1.7617,-3.03125 2.2617,-3.03125 0.7618,0 1.6407,1.01172 2.6485,3.03125 2.0234,4.28125 6.5625,15.89063 13.6133,34.78906 7.5703,19.67188 11.9882,31.76953 13.25,36.3125 1.0078,3.52735 1.5078,6.17969 1.5078,7.94922 0,5.28906 -5.3008,2.00781 -15.8906,-9.83984 -1.2579,-1.76172 -1.8907,-1.01172 -1.8907,2.26953 0,1.01172 2.711,31.449221 8.1328,106.078121 5.418,74.63282 8.1407,116.61328 8.1407,125.94528 0,28.7461 -4.0703,54.0547 -12.8711,75.6446 -1.7813,4.3867 -3.5196,7.4375 -4.5313,9.457 -1.7695,3.0234 -2.6797,3.5117 -3.0273,1.5117 -0.4024,-2.2851 -0.461,-6.9492 0.3789,-13.9922 1.168,-9.8437 1.8906,-21.3086 1.8906,-34.4218 0,-11.8516 -3.0312,-60.4532 -9.082,-145.80083 -6.0391,-85.35156 -9.0703,-125.812501 -9.0703,-136.140621"
     id="path6" />
  <path
     fill-rule="nonzero"
     fill="#B4941F"
     fill-opacity="1"
     d="m 1362.5625,286.10152 c -6.3086,-18.91011 -10.6016,-36.55855 -12.8594,-52.94918 -0.7617,-6.5625 -1.3906,-10.58984 -1.8906,-12.10156 -0.7617,-3.27734 -2.3984,-6.55859 -4.9219,-9.83984 1.7617,-5.80078 4.543,-13.73828 8.3203,-23.82813 1.0118,-3.01953 2.0118,-4.53125 3.0235,-4.53125 1.0078,0 2.6484,1.51172 4.9179,4.53125 9.5821,13.36719 17.6485,25.46875 24.211,36.3086 2.7695,4.28906 4.1601,7.4414 4.1601,9.46093 0,1.25782 -0.6328,1.89063 -1.8906,1.89063 -2.2695,0 -6.6797,-2.01953 -13.2422,-6.05078 -0.5078,0 -1.0078,0.3789 -1.5078,1.14062 2.2695,8.0586 5.918,19.14844 10.9688,33.27735 11.0898,31.51566 16.6406,54.46096 16.6406,68.83596 0,14.3711 -2.2695,26.9765 -6.8086,37.8164 -7.0625,17.9062 -19.4219,26.8555 -37.0703,26.8555 -18.6602,0 -33.4102,-8.0704 -44.25,-24.2071 -6.5625,-9.582 -12.3516,-24.0781 -17.4024,-43.4961 -2.2695,19.418 -8.4375,36.1836 -18.5273,50.3047 -12.6094,17.1445 -28.7422,25.7188 -48.4102,25.7188 -21.4296,0 -36.4296,-10.211 -45.0117,-30.6368 -4.789,-11.5976 -7.1875,-25.2109 -7.1875,-40.8476 0,-20.6719 2.3985,-39.961 7.1875,-57.8672 1.5117,-4.78516 2.2696,-7.94531 2.2696,-9.45313 0,-1.01171 -0.25,-1.51171 -0.7579,-1.51171 -1,0 -3.0195,2.39062 -6.0507,7.1914 -4.7891,7.55864 -9.8321,22.81254 -15.1289,45.75784 -6.8008,29.7539 -11.3399,47.6523 -13.6094,53.707 -2.7813,8.5742 -6.6836,15.5039 -11.7305,20.8047 -4.2812,4.0312 -7.9414,6.0469 -10.9609,6.0469 -13.8711,0 -24.5899,-8.6953 -32.1524,-26.0977 -6.0468,-14.3711 -9.0781,-31.8945 -9.0781,-52.5664 0,-14.375 2.2695,-30.0078 6.8086,-46.90234 0.7617,-3.78125 1.6406,-6.5625 2.6523,-8.32031 1.5079,-2.51953 2.5079,-2.90234 3.0196,-1.13281 0.5,2.01172 0.25,5.54297 -0.7617,10.58984 -2.5196,12.85942 -3.7774,24.58202 -3.7774,35.17192 0,41.6015 8.6992,62.4062 26.0977,62.4062 7.5625,0 13.8711,-5.5469 18.9101,-16.6406 3.0313,-7.0625 6.6797,-20.4219 10.9727,-40.0899 5.039,-21.6875 9.457,-37.5703 13.2265,-47.65621 4.043,-11.60157 9.0821,-21.94141 15.1329,-31.01953 6.5585,-10.08204 12.2382,-15.1211 17.0195,-15.1211 3.789,0 5.6797,4.16016 5.6797,12.48047 0,7.05859 -1.9492,21.12109 -5.8594,42.16797 -3.9102,21.0547 -5.8711,35.2383 -5.8711,42.5508 0,15.6328 3.2813,27.9219 9.8398,36.875 6.5508,8.9531 15.7618,13.4297 27.6016,13.4297 21.1875,0 37.0703,-6.6836 47.6602,-20.0508 8.3203,-10.5859 12.4882,-23.5703 12.4882,-38.9531 0,-14.625 -1.2695,-28.8672 -3.789,-42.73832 -1.7617,-9.58203 -4.1602,-18.78906 -7.1914,-27.60937 -2.2696,-7.57032 -3.3985,-11.08985 -3.3985,-10.58985 0,-8.57031 2.7696,-20.17187 8.3204,-34.80078 1.2578,-3.26953 2.1484,-4.91016 2.6484,-4.91016 1.0117,0 2.5195,2.14063 4.5391,6.42969 7.8125,16.39063 13.9921,41.46875 18.5312,75.25781 4.2891,31.51958 10.4688,54.08598 18.5313,67.70318 8.0703,13.6171 20.2968,20.4218 36.6875,20.4218 13.871,0 22.9531,-4.9101 27.2304,-14.75 0,-3.5273 -2.8984,-10.9648 -8.6992,-22.3125 -7.3086,-14.3711 -12.4805,-26.2187 -15.5,-35.5508"
     id="path7" />
  <path
     fill-rule="nonzero"
     fill="#B4941F"
     fill-opacity="1"
     d="m 1098.3008,62.792969 c 0,-11.85156 -1.8867,-21.5625 -5.668,-29.12109 0,-4.28907 3.3985,-14.5 10.211,-30.64063 1.0078,-2.01953 1.7695,-3.03125 2.2695,-3.03125 0.7578,0 1.6406,1.01172 2.6484,3.03125 2.0196,4.28125 6.5508,15.89063 13.6094,34.78906 7.5703,19.67188 11.9805,31.76953 13.2422,36.3125 1.0078,3.52735 1.5078,6.17969 1.5078,7.94922 0,5.28906 -5.2891,2.00781 -15.8789,-9.83984 -1.2578,-1.76172 -1.8906,-1.01172 -1.8906,2.26953 0,76.828121 10.3515,111.949221 10.3515,189.769531 0,28.74997 -4.0625,54.05857 -12.8593,75.64847 -1.793,4.3867 -3.5313,7.4375 -4.543,9.457 -1.7578,3.0234 -2.668,3.5117 -3.0195,1.5117 -0.3985,-2.2851 -0.4688,-6.9492 0.371,-13.9922 1.1797,-9.8437 1.8985,-21.3086 1.8985,-34.4218 0,-94.42192 -12.25,-145.42192 -12.25,-239.691451"
     id="path8" />
  <path
     fill-rule="nonzero"
     fill="#B4941F"
     fill-opacity="1"
     d="m 1035.8008,62.781249 c 0,-11.84766 -1.8985,-21.55859 -5.6797,-29.12109 0,-4.53907 3.4102,-14.86719 10.2109,-31.00782 1.0118,-1.76953 1.7696,-2.65234 2.2696,-2.65234 0.7617,0 1.6406,1.01172 2.6523,3.03125 2.0195,4.28125 6.5586,15.87891 13.6094,34.78906 7.5703,19.67188 11.9805,31.76953 13.2383,36.3125 1.0117,3.52735 1.5117,6.05078 1.5117,7.57032 0,5.53906 -5.2891,2.38671 -15.8789,-9.46094 -1.2617,-1.76953 -1.8906,-1.14063 -1.8906,1.89062 0,0.75782 2.3281,33.160161 7,97.199221 4.6601,64.05078 7,102.25 7,114.60159 0,20.1719 -3.543,39.5898 -10.6016,58.25 -9.5781,26.2187 -24.3281,43.4883 -44.25,51.8125 v -0.027 c -18.4883,7.9024 -32.3281,14.0899 -41.5195,18.5625 -18.4102,8.5703 -31.1407,15.5039 -38.1993,20.7969 -12.6093,9.8359 -31.0195,28.7461 -55.2226,56.7344 -14.3789,16.6406 -28.75,24.9609 -43.1172,24.9609 -12.3516,0 -23.0703,-5.5429 -32.1523,-16.6406 -9.5782,-11.3477 -14.3672,-25.3438 -14.3672,-41.9805 0,-22.6953 9.3281,-52.3203 27.9882,-88.8828 2.0118,-3.7812 3.5313,-5.6719 4.5391,-5.6719 0.5,0.2539 0.75,0.7579 0.75,1.5118 0,3.7851 -4.0273,16.5781 -12.0976,38.3906 -8.0704,21.8086 -12.1016,39.0156 -12.1016,51.625 0,9.832 2.2617,17.5273 6.8008,23.0703 4.8008,6.3008 11.4804,9.457 20.0508,9.457 15.1289,0 30.5078,-7.6914 46.1406,-23.0742 9.8281,-11.5937 19.6679,-23.1953 29.5,-34.793 12.8594,-14.3711 29.6289,-27.2343 50.3086,-38.5781 12.3476,-6.5586 33.5312,-16.2656 63.539,-29.1211 v 0.012 c 23.6524,-10.3359 35.4688,-25.8437 35.4688,-46.5312 0,-10.3438 -2.5899,-51.94533 -7.75,-124.81642 -5.168,-72.86719 -7.75,-115.609371 -7.75,-128.218751"
     id="path9" />
  <path
     fill-rule="nonzero"
     fill="#B4941F"
     fill-opacity="1"
     d="m 796.2539,210.29297 c 7.0586,-3.03125 16.3867,-7.19141 27.9883,-12.48047 -1.5078,-1.51172 -10.0899,-8.69922 -25.7188,-21.5625 -13.8711,-11.34766 -22.6328,-20.04687 -26.2812,-26.09766 -3.6602,-6.05078 -5.4883,-12.35937 -5.4883,-18.91015 0,-11.10156 4.5977,-20.80078 13.7969,-29.1211 9.2109,-8.320311 20.6211,-12.488281 34.2422,-12.488281 25.2109,0 65.3008,6.8086 120.2695,20.429691 2.2695,0.5 31.1406,8.32031 86.6094,23.44922 3.0195,0.76172 3.9023,2.89844 2.6406,6.42969 l -8.6914,24.96093 c -1.0078,2.51954 -1.8281,4.23047 -2.457,5.10938 -0.6328,0.87891 -1.7032,1.57031 -3.2227,2.07812 -49.918,11.85157 -99.5898,27.48047 -149.0078,46.90235 0.75,7.55859 1.1289,13.35937 1.1289,17.39062 0,6.0586 -0.8789,9.07813 -2.6484,9.07813 -2.5235,0 -7.8125,-6.92969 -15.8828,-20.80078 -9.0782,2.78125 -24.8399,9.08203 -47.2774,18.91015 -8.832,3.78125 -16.7031,7.88282 -23.6406,12.29297 -6.9297,4.41016 -10.4024,7.37891 -10.4024,8.88672 0,3.53125 2.0235,9.45702 6.0508,17.78122 l -0.1289,0.1563 c 0.1289,0.1875 0.2305,0.3828 0.3203,0.6015 16.6407,-5.5468 30.1289,-8.3164 40.4688,-8.3164 10.5898,0 18.9101,4.4102 24.9609,13.2344 6.0508,8.8281 9.0781,20.4258 9.0781,34.7969 0,11.8516 -2.5898,21.6211 -7.7578,29.3125 -5.1601,7.6914 -12.0312,11.5351 -20.6093,11.5351 -19.1602,0 -36.5625,-14.621 -52.1915,-43.871 -29,17.3984 -52.1914,26.0937 -69.5898,26.0937 v -0.01 c -3.9883,0 -6.9805,-0.3789 -8.9805,-1.1328 0,25.2148 -1.3906,44.3789 -4.1601,57.4883 -3.0313,14.6211 -8.3203,25.5937 -15.8906,32.9062 -20.168,19.918 -44.75,37.5703 -73.75,52.9492 -36.8086,19.1641 -71.4805,28.7461 -104.0079,28.7461 -46.1406,0 -77.91403,-22.6953 -95.31246,-68.0781 -3.53125,-8.8281 -5.29297,-19.918 -5.29297,-33.2852 0,-9.582 0.7539,-18.9101 2.26562,-27.9882 2.02344,-13.8711 5.04688,-25.8477 9.07813,-35.9336 1.51562,-3.5274 2.77734,-5.293 3.78515,-5.293 1.00391,0 1.25782,2.1445 0.75391,6.4297 -1.51172,6.3008 -3.02344,12.6094 -4.53906,18.914 -2.51563,11.5938 -3.78125,20.043 -3.78125,25.336 0,18.6601 6.30078,35.8047 18.91406,51.4414 17.14847,20.9258 41.72657,31.3867 73.74607,31.3867 28.2422,0 57.8711,-6.6758 88.8907,-20.043 23.9531,-10.3359 46.3906,-23.7031 67.3125,-40.0898 17.6484,-13.3633 28,-23.3242 31.0195,-29.8789 0,-20.6758 -5.9297,-42.6172 -17.7695,-65.8086 -2.0196,-4.5391 -3.0313,-7.9414 -3.0313,-10.2109 0,-2.0196 2.3906,-10.7188 7.1797,-26.0977 0.7617,-3.0273 1.6406,-4.5391 2.6484,-4.5391 1.2617,0 2.9024,2.0157 4.9219,6.0469 3.2813,7.3164 5.6719,11.7266 7.1797,13.2422 4.0391,4.2852 10.3398,6.4297 18.9101,6.4297 v 0.01 c 15.8711,-0.027 35.629,-6.4609 59.2891,-19.2891 -0.059,-0.25 -0.078,-0.5 -0.07,-0.75 l -0.1172,-0.016 c -0.5117,-4.5391 -0.7617,-8.9492 -0.7617,-13.2344 0,-31.26168 15.0117,-53.08199 45.0117,-65.42965 z M 514.8516,363.83982 c -0.5,-0.5039 -0.5,-1.2578 0,-2.2695 l 12.1015,-24.2031 c 0.7578,-1.5117 1.5196,-2.2657 2.2696,-2.2657 1.2695,0 6.5586,3.211 15.8906,9.6407 9.3281,6.4297 13.9883,10.2773 13.9883,11.5351 0,4.0352 -4.1485,12.6055 -12.4805,25.7188 -1.0078,1.7617 -2.0195,2.2695 -3.0195,1.5117 -9.0782,-7.0547 -18.6602,-13.6133 -28.75,-19.668 z m 303.9023,-35.9179 c 5.2969,0 7.9375,-1.6407 7.9375,-4.918 0,-4.0352 -3.0195,-7.1836 -9.0703,-9.4531 -7.0586,-3.0274 -16.7695,-3.5352 -29.1172,-1.5157 9.3203,10.5938 19.4102,15.8868 30.25,15.8868 z M 962.293,155.07031 c -13.3711,-5.29687 -34.2891,-11.46875 -62.7891,-18.53906 -36.5625,-8.82031 -65.9297,-13.23047 -88.1211,-13.23047 -17.6484,0 -26.4805,1.38281 -26.4805,4.16016 0,1.51172 2.6485,4.53906 7.9493,9.07031 9.832,8.33203 19.789,16.65234 29.8828,24.96875 14.8672,12.35156 24.3281,21.30078 28.3594,26.85156 39.5898,-14.37109 76.6484,-25.46093 111.1992,-33.28125"
     id="path10" />
  <path
     fill-rule="nonzero"
     fill="#B4941F"
     fill-opacity="1"
     d="m 559.2539,63.062499 c 0,-11.85156 -1.8906,-21.55078 -5.6719,-29.12109 0,-4.28907 3.3008,-14.55078 10.211,-30.62891 0.8906,-2.07031 1.7695,-3.03125 2.2695,-3.03125 0.7617,0 1.6719,1 2.6406,3.03125 2.0508,4.25781 6.4688,15.92969 13.6211,34.78906 7.4688,19.71094 11.9688,31.78125 13.2383,36.3086 0.9883,3.53125 1.5117,6.17968 1.5117,7.9414 0,5.30078 -5.4531,2.16016 -15.8828,-9.82812 -1.418,-1.63281 -1.8906,-1.01172 -1.8906,2.26953 0,1.00781 2.7109,38.828121 8.1328,113.457031 5.418,74.64063 10.7187,143.94922 10.7187,153.28122 0,28.7461 -4.289,53.961 -12.8593,75.6407 -2.0196,4.289 -3.5313,7.4414 -4.5391,9.457 -1.7695,3.0273 -2.7812,3.5312 -3.0312,1.5156 -0.5,-2.2695 -0.3789,-6.9375 0.3789,-13.9961 1.2617,-9.832 1.8906,-21.3086 1.8906,-34.4179 0,-11.8516 -5.6094,-87.7813 -11.6602,-173.12896 C 562.2813,121.25 559.2539,73.402339 559.2539,63.062499"
     id="path11" />
  <path
     fill-rule="nonzero"
     fill="#B4941F"
     fill-opacity="1"
     d="m 468.6133,62.781249 c 0,-11.84766 -1.9024,-21.55859 -5.6797,-29.12109 0,-4.53907 3.4102,-14.86719 10.207,-31.00782 1.0117,-1.76953 1.7735,-2.65234 2.2735,-2.65234 0.7578,0 1.6367,1.01172 2.6484,3.03125 2.0195,4.28125 6.5586,15.87891 13.6094,34.78906 7.5703,19.67188 11.9804,31.76953 13.2422,36.3125 1.0078,3.52735 1.5078,6.05078 1.5078,7.57032 0,5.53906 -5.2891,2.38671 -15.8789,-9.46094 -1.2617,-1.76953 -1.8907,-1.14063 -1.8907,1.89062 0,0.75782 2.3321,33.160161 6.9883,97.199221 4.6719,64.05078 7,102.25 7,114.60159 0,20.1719 -3.5273,39.5898 -10.5898,58.25 -9.5781,26.2187 -24.3281,43.4883 -44.25,51.8125 v -0.01 c -18.4688,7.8906 -32.29689,14.0742 -41.4883,18.5429 -18.40234,8.5703 -31.14063,15.5039 -38.19531,20.7969 -12.60938,9.8359 -31.01563,28.7461 -55.22657,56.7344 -14.36718,16.6406 -28.73828,24.9609 -43.11328,24.9609 -12.35156,0 -23.07031,-5.5429 -32.14453,-16.6406 -9.58203,-11.3477 -14.3789,-25.3438 -14.3789,-41.9805 0,-22.6953 9.33203,-52.3203 27.99218,-88.8828 2.01563,-3.7812 3.53125,-5.6719 4.53907,-5.6719 0.5039,0.2539 0.7539,0.7579 0.7539,1.5118 0,3.7851 -4.03125,16.5781 -12.09765,38.3906 -8.07422,21.8086 -12.10938,39.0156 -12.10938,51.625 0,9.832 2.26953,17.5273 6.80859,23.0703 4.79297,6.3008 11.47657,9.457 20.05079,9.457 15.125,0 30.50781,-7.6914 46.14062,-23.0742 9.83203,-11.5937 19.66797,-23.1953 29.5,-34.793 12.85938,-14.3711 29.625,-27.2343 50.30469,-38.5781 12.23437,-6.4961 33.12498,-16.0781 62.66408,-28.7461 l 0.8711,-0.375 c 23.6289,-10.3437 35.4414,-25.8476 35.4414,-46.5195 0,-10.3438 -2.5899,-51.94533 -7.75,-124.81642 -5.1719,-72.86719 -7.75,-115.609371 -7.75,-128.218751"
     id="path12" />
  <path
     fill-rule="nonzero"
     fill="#B4941F"
     fill-opacity="1"
     d="m 250.14844,191.28125 c 3.52734,0 7.18359,4.53906 10.96484,13.62109 5.04688,12.09766 9.58203,20.55079 13.61719,25.33985 7.32422,8.26953 16.98047,12.66797 28.94922,13.17969 13.33203,-0.51172 31.03515,-4.51954 53.12109,-12.03907 9.83594,-3.53125 31.26953,-11.98047 64.30082,-25.33984 l -69.21488,-20.8125 c -2.52344,-0.5 -5.04297,0.51172 -7.56641,3.03125 -1.76562,1.76172 -4.53906,2.51953 -8.32031,2.26953 -11.34375,-0.75781 -26.85547,-1.76953 -46.51953,-3.03125 -4.28906,-0.5 -6.4336,-1.62891 -6.4336,-3.39844 0,-1.26172 0.76172,-3.28125 2.26954,-6.05078 l 12.10546,-21.9375 c 1.51172,-3.28125 3.65625,-5.17187 6.42969,-5.67187 14.3711,-2.26953 31.26563,-3.39844 50.67969,-3.39844 0.50391,0 14.625,4.66016 42.35937,13.98828 30.01168,9.83203 51.06248,16.14063 63.16018,18.91016 12.1133,2.76953 30.1406,6.05078 54.0898,9.83203 22.4414,3.78906 35.1719,5.67969 38.2032,5.67969 1.5078,0 2.5195,0.11718 3.0273,0.3789 1.2617,0.5 1.1328,2.00781 -0.3789,4.53906 l -12.8594,23.82032 c -1.2617,2.01953 -3.2812,3.03125 -6.0508,3.03125 -2.7812,0 -8.5781,-0.51172 -17.3984,-1.51953 -8.832,-1 -16.6406,-1.51172 -23.4492,-1.51172 -21.4336,0 -45.5235,4.78906 -72.2422,14.37109 -21.43751,9.07813 -42.9922,18.16016 -64.67579,27.23828 -21.125,8.66794 -38.52735,13.51174 -52.19532,14.53514 v 0.207 c -0.91015,0 -1.80859,-0.019 -2.69922,-0.051 -0.88281,0.039 -1.74609,0.055 -2.59375,0.055 v -0.1875 c -13.15234,-0.9297 -23.74218,-5.4063 -31.76953,-13.42583 -5.29687,-5.05078 -10.46484,-13.49218 -15.50781,-25.34375 -4.03125,-8.82812 -7.69141,-13.23828 -10.96875,-13.23828 -4.53906,0 -11.34766,4.78907 -20.42578,14.3711 -9.83203,10.07812 -14.75,18.78906 -14.75,26.09765 0,6.17581 2.78906,12.34761 8.35547,18.52731 l 0.0117,0.012 0.0664,0.078 0.0117,0.01 0.14453,0.1641 0.11328,0.121 v 0.016 c 0.0859,0.1133 0.16407,0.2343 0.23047,0.3633 16.64063,-5.5469 30.13282,-8.3204 40.46875,-8.3204 10.59375,0 18.91016,4.4102 24.96094,13.2383 6.05469,8.8242 9.07813,20.4258 9.07813,34.7969 0,11.8477 -2.58594,21.6211 -7.75391,29.3125 -5.16797,7.6875 -12.03906,11.5313 -20.61328,11.5313 -19.16406,0 -36.5625,-14.625 -52.19141,-43.8711 -19.91797,7.8164 -42.86719,21.9336 -68.83984,42.3593 -18.91016,15.6328 -37.82031,31.1407 -56.73047,46.5196 -14.11719,10.5937 -26.85156,15.8867 -38.19922,15.8867 -12.35547,0 -23.07422,-5.418 -32.14844,-16.2617 C 4.78902,401.70182 -4e-5,387.70962 -4e-5,371.32292 c 0,-22.6953 9.32422,-52.3242 27.98437,-88.8828 2.01954,-3.7852 3.53516,-5.6719 4.53907,-5.6719 0.5039,0 0.75781,0.5039 0.75781,1.5117 0,3.5313 -4.03125,16.2617 -12.10547,38.1992 -8.06641,21.9375 -12.10156,39.0821 -12.10156,51.4375 0,9.8321 2.26953,17.6524 6.80859,23.4493 5.04297,6.3007 11.72656,9.457 20.04297,9.457 13.87109,0 26.98438,-4.5391 39.33984,-13.6172 15.125,-13.1094 30.25391,-26.0937 45.38672,-38.957 29.48828,-24.7813 55.57032,-42.5 78.2461,-53.1602 -2.89063,-8.8125 -4.08985,-16.0547 -3.59375,-21.72264 2.26953,-22.4414 9.83203,-42.24219 22.69531,-59.38281 11.59375,-15.12891 22.3125,-22.69922 32.14844,-22.69922 z m 16.49218,141.46097 c 5.29688,0 7.94141,-1.6407 7.94141,-4.918 0,-4.0352 -3.02344,-7.1914 -9.07812,-9.457 -7.05469,-3.0274 -16.76172,-3.5313 -29.1211,-1.5117 9.32813,10.5859 19.41406,15.8867 30.25781,15.8867"
     id="path13" />
  <path
     fill-rule="nonzero"
     fill="#B4941F"
     fill-opacity="1"
     d="m 172.29687,468.50392 9.45313,-19.2891 c 0.75781,-1.5078 1.51172,-2.2656 2.27344,-2.2656 1.25781,0 6.61328,3.2148 16.07031,9.6406 9.45703,6.4336 14.18359,10.1524 14.18359,11.1602 0,4.0351 -4.16015,12.7305 -12.48047,26.0976 -1.01171,1.5157 -2.01953,1.8907 -3.02343,1.1329 -8.32422,-6.0508 -17.52735,-12.3555 -27.61328,-18.9063 -3.27735,7.8125 -6.6836,14.3711 -10.21094,19.6641 -0.75391,1.7617 -1.76563,2.2695 -3.02344,1.5117 -9.07812,-7.0547 -18.66016,-13.7383 -28.74609,-20.043 -0.50782,-0.2539 -0.50782,-1.0078 0,-2.2695 l 12.10156,-23.8281 c 0.75781,-1.5118 1.51172,-2.2696 2.26562,-2.2696 1.01172,0 5.48829,2.6446 13.42969,7.9453 7.94141,5.293 13.05078,9.1993 15.32031,11.7188"
     id="path14" />
  <path
     fill-rule="nonzero"
     fill="#B4941F"
     fill-opacity="1"
     d="m 1443.8828,506.29302 c 34.0391,-12.3516 70.3399,-25.5938 108.918,-39.7149 2.0234,-0.7539 3.1601,-1.0039 3.4101,-0.7539 0.5,0.5039 0.3829,1.6406 -0.3789,3.4063 -2.2695,5.2929 -4.0312,8.4453 -5.3007,9.457 -32.2696,11.5937 -69.9688,26.3437 -113.0782,44.25 1.5078,-5.043 3.6485,-10.5899 6.4297,-16.6445"
     id="path15" />
  <path
     fill-rule="nonzero"
     fill="#B4941F"
     fill-opacity="1"
     d="m 972.2813,322.85152 c 0,4.5391 -1,9.4571 -3.0196,14.75 -2.7773,6.5586 -6.4297,9.836 -10.9687,9.836 -7.0586,0 -11.9805,-4.793 -14.75,-14.375 -3.2813,12.3555 -9.3321,18.5351 -18.1524,18.5351 -3.2773,0 -6.1797,-1.6406 -8.707,-4.9218 -2.7695,-4.0313 -4.1523,-9.1993 -4.1523,-15.5039 v -15.1289 c 0,-1.2618 -0.8907,-2.1407 -2.6485,-2.6446 -1.7695,-0.5039 -2.6484,-1.7656 -2.6484,-3.7851 0,-3.2774 1.5078,-6.5547 4.539,-9.8321 2.5196,-2.7734 4.4102,-4.164 5.668,-4.164 1.7695,0 2.6524,3.2812 2.6524,9.8398 0,3.5274 -0.25,6.4883 -0.7618,8.8828 -0.5,2.3985 -0.75,4.3516 -0.75,5.8672 0,3.7774 0.75,7.1836 2.2696,10.211 1.5117,3.7812 3.6523,5.6718 6.4297,5.6718 3.2695,0 6.3593,-1.5117 9.2617,-4.539 2.8984,-3.0274 4.3476,-6.4297 4.3476,-10.211 0,-2.2695 -0.6875,-6.2383 -2.0781,-11.914 -1.3789,-5.6719 -2.0781,-9.2696 -2.0781,-10.7774 0,-1.2656 0.6289,-3.2148 1.8867,-5.8672 1.2617,-2.6445 2.1523,-3.9687 2.6523,-3.9687 1.2579,0 2.711,3.7812 4.3477,11.3437 1.6406,7.5703 2.4609,13.1133 2.4609,16.6446 0,10.3398 4.0313,15.5078 12.1016,15.5078 3.5273,0 5.668,-1.7656 6.4297,-5.293 -6.8125,-11.8516 -10.211,-21.0547 -10.211,-27.6133 0,-3.5273 0.879,-6.8086 2.6485,-9.832 1.2617,-2.0195 2.1406,-3.0274 2.6406,-3.0274 0.5117,0 0.8828,1.2579 1.1406,3.7813 0.25,3.2812 0.75,6.0547 1.5118,8.3242 0.25,0.25 2.0195,4.5391 5.2968,12.8555 1.7617,4.793 2.6407,8.5742 2.6407,11.3476"
     id="path16" />
  <path
     fill-rule="nonzero"
     fill="#B4941F"
     fill-opacity="1"
     d="m 1043.3906,499.60942 c 34.043,-12.3516 153.5821,-53.6524 192.1524,-67.7852 2.0312,-0.7383 3.1601,-1.0039 3.4101,-0.7539 0.5,0.5039 0.3789,1.6445 -0.3789,3.4062 -2.2617,5.293 -4.0312,8.4454 -5.3008,9.4571 -32.2695,11.5937 -153.1914,54.4179 -196.3125,72.3203 1.5235,-5.043 3.6602,-10.5899 6.4297,-16.6445"
     id="path17" />
  <path
     fill-rule="nonzero"
     fill="#B4941F"
     fill-opacity="1"
     d="m 608.4922,126.25 c 34.0391,-12.34766 192.9805,-71.378911 231.5508,-85.507811 2.0195,-0.74219 3.1484,-1.01172 3.3984,-0.76172 0.5117,0.51172 0.3828,1.65234 -0.3672,3.41016 -2.2734,5.29296 -4.0429,8.4414 -5.3008,9.44921 -32.2812,11.60157 -192.5898,72.152351 -235.7109,90.062501 1.5117,-5.05078 3.6484,-10.60156 6.4297,-16.65234"
     id="path18" />
  <path
     fill-rule="nonzero"
     fill="#B4941F"
     fill-opacity="1"
     d="m 862.6719,269.21094 c 34.039,-12.34766 89.7695,-30.78906 128.3398,-44.91797 2.0196,-0.74219 3.1524,-1.01172 3.4024,-0.76172 0.5078,0.51172 0.3789,1.65234 -0.3711,3.41016 -2.2696,5.28125 -4.0391,8.4414 -5.3008,9.44922 -32.2813,11.60156 -89.3789,31.5625 -132.5,49.46879 1.5117,-5.043 3.6484,-10.5938 6.4297,-16.64848"
     id="path19" />
  <path
     fill-rule="nonzero"
     fill="#B4941F"
     fill-opacity="1"
     d="m 549.2227,531.37502 c 34.039,-12.3516 89.7812,-30.7969 128.3398,-44.9258 2.0313,-0.7383 3.1602,-1.0039 3.4102,-0.7539 0.5,0.5039 0.3711,1.6445 -0.3789,3.4023 -2.2618,5.2891 -4.0313,8.4493 -5.3008,9.4571 -32.2696,11.5976 -89.3789,31.5625 -132.4922,49.4648 1.5117,-5.043 3.6523,-10.5898 6.4219,-16.6445"
     id="path20" />
  <path
     fill-rule="nonzero"
     fill="#B4941F"
     fill-opacity="1"
     d="m 427.7031,321.94922 c 0,4.5391 -1,9.457 -3.0195,14.75 -2.7813,6.5586 -6.4297,9.8359 -10.97266,9.8359 -7.0625,0 -11.97657,-4.7929 -14.75,-14.375 -3.27735,12.3555 -9.33203,18.5352 -18.15235,18.5352 -3.28125,0 -6.17968,-1.6406 -8.70312,-4.918 -2.77344,-4.0351 -4.16016,-9.2031 -4.16016,-15.5078 v -15.1289 c 0,-1.2617 -0.88281,-2.1406 -2.64844,-2.6445 -1.76562,-0.5039 -2.64453,-1.7656 -2.64453,-3.7852 0,-3.2773 1.51172,-6.5547 4.53907,-9.832 2.51953,-2.7735 4.41015,-4.1641 5.67187,-4.1641 1.76563,0 2.64453,3.2813 2.64453,9.8399 0,3.5273 -0.25,6.4883 -0.7539,8.8828 -0.50391,2.3984 -0.75391,4.3515 -0.75391,5.8672 0,3.7773 0.75391,7.1836 2.26562,10.2109 1.51172,3.7774 3.65625,5.6719 6.42969,5.6719 3.28125,0 6.36719,-1.5117 9.26563,-4.5352 2.89843,-3.0312 4.35156,-6.4336 4.35156,-10.2148 0,-2.2695 -0.69141,-6.2383 -2.08203,-11.9141 -1.38672,-5.6719 -2.07813,-9.2695 -2.07813,-10.7773 0,-1.2657 0.62891,-3.2188 1.89063,-5.8672 1.25781,-2.6445 2.14453,-3.9688 2.64844,-3.9688 1.26171,0 2.70703,3.7813 4.34765,11.3438 1.63672,7.5703 2.46094,13.1133 2.46094,16.6445 0,10.3399 4.03516,15.5078 12.10156,15.5078 3.53124,0 5.67184,-1.7656 6.42964,-5.2929 -6.80854,-11.8516 -10.21479,-21.0547 -10.21479,-27.6133 0,-3.5274 0.88671,-6.8086 2.64843,-9.8321 1.26172,-2.0195 2.14453,-3.0273 2.65235,-3.0273 0.5039,0 0.8789,1.2578 1.13671,3.7813 0.25,3.2812 0.75,6.0546 1.5078,8.3242 0.25,0.25 2.0195,4.539 5.3008,12.8554 1.7617,4.793 2.6406,8.5704 2.6406,11.3477"
     id="path21" />
  <path
     fill-rule="nonzero"
     fill="#B4941F"
     fill-opacity="1"
     d="m 315.83203,295.45702 c 34.03906,-12.3516 89.77734,-30.79686 128.33987,-44.92577 2.0195,-0.73828 3.1523,-1 3.4023,-0.75 0.5078,0.5 0.3789,1.64063 -0.3711,3.40234 -2.2695,5.28907 -4.0312,8.44922 -5.3008,9.45704 -32.27339,11.59379 -89.37886,31.55859 -132.49605,49.46089 1.51172,-5.0429 3.65234,-10.5898 6.42578,-16.6445"
     id="path22" />
  <path
     fill-rule="nonzero"
     fill="#B4941F"
     fill-opacity="1"
     d="m 219.98437,405.28512 c 34.04297,-12.3476 105.48047,-36.6132 144.04297,-50.7382 2.01953,-0.7344 3.15625,-1.0039 3.40625,-0.7539 0.50391,0.5039 0.375,1.6484 -0.375,3.4062 -2.26172,5.2891 -4.03515,8.4453 -5.30078,9.457 -32.27344,11.5938 -105.08203,37.3711 -148.19922,55.2774 1.51563,-5.0469 3.65235,-10.5938 6.42578,-16.6485"
     id="path23" />
  <path
     fill-rule="nonzero"
     fill="#B4941F"
     fill-opacity="1"
     d="m 228.29297,97.210939 c 0,2.76953 -3.27735,8.691401 -9.83203,17.769531 -7.56641,10.58984 -14.75,18.28125 -21.55469,23.07031 -4.28906,3.03125 -18.53516,7.82031 -42.74219,14.3711 -4.53906,0.76171 -6.80859,1.14062 -6.80859,1.14062 0.5039,-0.51172 2.14453,-1.76953 4.91797,-3.78906 3.02343,-2.51172 11.72656,-7.4336 26.09765,-14.75 13.36328,-7.3125 21.17578,-11.97266 23.44922,-13.99219 0.50391,-0.5 0.75781,-1.00781 0.75781,-1.50781 0,-3.03125 -12.10546,-4.54297 -36.30859,-4.54297 0,0 -4.53906,0.13281 -13.61719,0.38281 -4.79297,0.25 -7.1875,0 -7.1875,-0.76172 0,-0.5 0.62891,-1.76172 1.89063,-3.78125 l 8.70312,-14.367181 c 2.51953,-4.29297 7.1836,-6.94141 13.98828,-7.95313 2.26954,-0.5 7.82032,-0.75 16.64454,-0.75 27.73828,0 41.60156,3.15234 41.60156,9.46094"
     id="path24" />
  <path
     fill-rule="evenodd"
     fill="#B4941F"
     fill-opacity="1"
     d="m 67.48828,190.30078 c -18.21875,18.83203 -27.30859,34.83985 -27.30859,48.01953 -1.73828,23.22266 11.23047,14.33985 17.89062,10.36328 -6.91406,19.45704 -13.8125,29.18753 -20.71484,29.18753 -8.79688,0 -13.17969,-5.96096 -13.17969,-17.89065 0,-11.91797 4.85547,-25.73828 14.59375,-41.42969 9.72656,-15.6875 18.97656,-25.73828 27.77734,-30.14062 2.91407,-1.34766 3.51563,-0.94922 0.94141,1.89062"
     id="path25" />
  <path
     fill-rule="evenodd"
     fill="#B4941F"
     fill-opacity="1"
     d="m 1271.3125,61.562499 c 0,15.82031 -3.2305,33.07813 -9.7109,51.769531 1.4414,-10.78125 2.1601,-21.921871 2.1601,-33.429691 0,-23.73046 -7.1875,-42.07031 -21.5703,-55.01171 l 2.1602,-24.8086 c 8.6328,6.48047 15.4492,16.55078 20.4922,30.19922 4.3203,11.51172 6.4687,21.94141 6.4687,31.28125"
     id="path26" />
  <path
     fill-rule="evenodd"
     fill="#B4941F"
     fill-opacity="1"
     d="m 1107.5313,423.82812 c -2.8477,-2.1367 -6.7774,-5.3437 -11.75,-9.6211 l -1.0704,9.6211 c 2.1407,1.418 4.9805,1.7656 8.5508,1.0664 1.4219,0 2.8321,-0.3633 4.2696,-1.0664 z m -16.0196,-10.6836 c -0.7187,-2.8555 -2.5078,-3.9258 -5.3476,-3.207 -4.2735,0.7031 -7.1211,2.8398 -8.543,6.4101 3.5625,3.5547 7.1133,5.3438 10.6797,5.3438 2.1406,-3.5742 3.2109,-6.4141 3.2109,-8.5469 z m -98.4883,70.4336 c -9.1406,0.5703 14.3086,-5.6406 21.0391,-8.1914 21.3203,-8.0703 45.2617,-19.7031 59.3281,-29.5273 7.2422,-5.0469 11.1407,-9.5586 11.711,-13.4844 -7.8477,-1.4375 -12.1172,-3.9258 -12.8203,-7.4805 -0.7188,-3.5742 0.1718,-8.1953 2.6718,-13.8867 2.4883,-5.7109 4.8086,-8.918 6.9375,-9.6133 l -3.1992,-5.3398 1.0703,-3.211 c 2.8321,0 7.4805,1.418 13.8789,4.2735 v 2.1367 c 5.7032,3.5625 11.75,9.9648 18.1602,19.2305 2.1406,10.6836 0,16.375 -6.3985,17.0898 -4.2812,0.7031 -9.2695,0.3516 -14.9609,-1.0664 -2.0586,24.4258 -30.1992,35.0859 -50.5391,44.1758 l -46.8789,4.8945"
     id="path27" />
  <path
     fill-rule="evenodd"
     fill="#B4941F"
     fill-opacity="1"
     d="m 701.1836,176.36328 c -4.543,-10.23047 -12.4805,-17.67187 -23.8203,-22.33203 -5.3008,7.44922 -7.9414,14.89063 -7.9414,22.33203 0,10.25781 3.7812,15.35938 11.3515,15.35938 6.8008,0 13.5977,-5.10938 20.4102,-15.35938 z m 4.5391,-4.1914 c 0,10.26171 -2.4688,20.03125 -7.3789,29.32031 -4.9219,9.30859 -11.1602,13.96094 -18.711,13.96094 -12.1015,0 -18.1406,-8.38282 -18.1406,-25.13282 0,-3.70703 2.4414,-15.10937 7.3711,-34.19922 4.9101,-19.07031 7.3711,-35.12109 7.3711,-48.16796 0,-23.250001 -7.5625,-41.882821 -22.6914,-55.839851 0,-0.91015 -1.1289,-14.87109 -3.4024,-41.87109 10.5821,8.37109 19.2813,20.48047 26.0938,36.28906 6.7969,15.83984 10.207,30.71094 10.207,44.67188 0,15.839841 -1.5273,28.859371 -4.5391,39.089841 15.879,6.51953 23.8204,20.48828 23.8204,41.87891"
     id="path28" />
  <path
     fill-rule="evenodd"
     fill="#B4941F"
     fill-opacity="1"
     d="m 159.15625,215.05078 c 0,4.67969 -1.75,9.33985 -5.24609,14 -2.33985,-3.5 -4.67579,-5.25 -7,-5.25 -4.67579,0 -8.17188,6.42188 -10.4961,19.24219 -1.75,9.33984 -3.5,18.36719 -5.25,27.11719 -1.75,-6.41016 -6.125,-16.02735 -13.12109,-28.85938 -1.17578,5.24219 -3.80078,7.85938 -7.875,7.85938 -2.92188,0 -5.6836,-1.29688 -8.3125,-3.92969 -2.6211,-2.62891 -3.9336,-5.6875 -3.9336,-9.1875 0,-9.32031 3.4961,-13.99219 10.4961,-13.99219 8.16015,0 15.44922,9.33203 21.86719,27.99219 5.2539,-32.65234 12.53515,-48.99219 21.87109,-48.99219 4.66016,0 7,4.67969 7,14"
     id="path29" />
  <path
     fill-rule="nonzero"
     fill="#B4941F"
     fill-opacity="1"
     d="m 955.7109,30.531249 c 0,2.40234 -2.8398,7.53125 -8.5078,15.39063 -6.5508,9.16796 -12.7617,15.82031 -18.6601,19.96875 -3.711,2.62109 -16.0391,6.76171 -37,12.4414 -3.9219,0.64844 -5.8907,0.98047 -5.8907,0.98047 0.4415,-0.44141 1.8594,-1.53125 4.2618,-3.26953 2.6172,-2.19141 10.1484,-6.44141 22.5898,-12.76953 11.5703,-6.33203 18.3281,-10.3711 20.2969,-12.11328 0.4336,-0.4375 0.6523,-0.87891 0.6523,-1.3086 0,-2.62109 -10.4804,-3.92968 -31.4297,-3.92968 0,0 -3.9218,0.10937 -11.7812,0.32812 -4.1484,0.21094 -6.2188,0 -6.2188,-0.66016 0,-0.4375 0.5391,-1.52734 1.6289,-3.26953 l 7.5313,-12.44922 c 2.1875,-3.69921 6.2187,-6 12.1094,-6.87109 1.9687,-0.4375 6.7695,-0.64844 14.4101,-0.64844 24.0078,0 36.0078,2.73047 36.0078,8.17969"
     id="path30" />
  <path
     fill-rule="evenodd"
     fill="#B4941F"
     fill-opacity="1"
     d="m 1212.9414,114.12109 c 0,4.67188 -1.75,9.33204 -5.2383,13.99219 -2.3398,-3.5 -4.6797,-5.25 -7.0117,-5.25 -4.668,0 -8.1601,6.42969 -10.4883,19.25 -1.75,9.32813 -3.5,18.36719 -5.25,27.11719 -1.75,-6.41016 -6.1211,-16.03906 -13.1211,-28.86719 -1.1797,5.25 -3.8007,7.86719 -7.8789,7.86719 -2.9218,0 -5.6797,-1.30859 -8.3125,-3.92969 -2.6172,-2.6289 -3.9297,-5.6875 -3.9297,-9.1875 0,-9.32031 3.5,-14 10.4922,-14 8.168,0 15.4492,9.33985 21.8711,28 5.25,-32.66015 12.5391,-48.99219 21.8672,-48.99219 4.6602,0 7,4.67188 7,14"
     id="path31" />
  <path
     fill-rule="evenodd"
     fill="#B4941F"
     fill-opacity="1"
     d="m 381.83203,66.972659 c 0.48438,-1.22266 0.91406,-2.48047 1.26953,-3.74219 2.3125,-9.89844 4.21485,-19.91016 7,-29.67969 1.54688,-5.07031 3.84766,-9.91797 6.79688,-14.32031 4.49218,-6.92969 9.86328,-7.07813 15.53125,-1.11719 4.9414,5.21875 5.60156,10.04688 2.47656,16.35938 -1.4375,2.91015 -2.91406,3.16015 -4.98047,0.6875 -0.41016,-0.5 -0.6875,-1.09766 -1.10547,-1.59766 -4.5039,-5.40234 -9.86328,-5.21094 -12.41797,1.32813 -3.20312,8.23046 -5.25,16.92187 -7.54297,25.47265 -1.83203,6.83985 -3.08593,13.84766 -5,20.67969 -0.78515,2.79687 -2.6289,5.32031 -3.98828,7.95703 l -1.41797,-0.29687 c -0.4375,-2.58985 -0.49609,-5.33204 -1.38671,-7.76172 -3.88282,-10.57813 -7.91407,-21.14844 -12.22266,-31.57032 -1.38672,-3.37109 -3.53516,-6.26953 -8.13672,-2.91015 -1.26172,0.91015 -4.43359,0.14062 -6.19141,-0.82031 -2.77734,-1.51954 -5.09765,-3.87891 -7.90234,-6.09766 -0.70703,0.80859 -1.33984,1.6875 -1.88281,2.61719 -6.10547,13.27343 -15.89063,23.30078 -27.31641,32.13281 -19.5625,15.07031 -42.45312,22.77734 -65.76172,29.867191 6.28125,-3.78907 12.67969,-7.386721 18.81641,-11.386721 20.25,-13.21094 40.54687,-26.38281 60.54687,-39.97266 8.84375,-6.00781 14.67579,-14.83984 19.48047,-24.32031 4.44922,-8.73828 5.66016,-9.30859 15.15625,-3.09766 7.46485,4.84766 10.4336,13.05078 13.42578,20.83985 2.51172,6.57031 4,13.52734 5.9375,20.32812 l 0.81641,0.42188"
     id="path32" />
  <path
     fill-rule="evenodd"
     fill="#B4941F"
     fill-opacity="1"
     d="m 166.94141,402.57032 c -1.65235,3.7617 -3.03125,7.6758 -5.00782,11.2617 -4.71484,8.5586 -11.77343,15.1094 -19.87109,20.2305 -8.26563,5.2187 -16.69531,10.5 -25.70313,14.1172 -8.30859,3.3515 -17.48046,4.5781 -26.30078,6.625 -5.67968,1.3398 -11.39453,2.5429 -17.08984,3.8008 l -0.30859,-0.918 c 0.91015,-0.461 1.8164,-0.9453 2.7539,-1.3633 16.19141,-7.2227 32.53125,-14.2461 48.63672,-21.7227 11.13672,-5.1523 21.64844,-11.5937 30.57813,-20.082 3.53515,-3.3633 5.9414,-7.9609 8.70312,-12.0976 1.47656,-2.211 2.51172,-4.7813 4.04297,-6.9844 1.69922,-2.418 2.83203,-4.0352 3.94531,-5.3985 5.89453,-7.207 12,-11.2617 18.4375,-2.3828 5.59766,7.7227 3.8125,18.1953 -0.66406,24.5118 -0.82813,1.1796 -1.67578,2.8164 -2.31641,2.4609 -6.53906,-1.9453 -14.39843,-6.4375 -19.83593,-12.0586 z m 6.8789,-7.2773 c 3.58985,2.9492 7.33203,5.5468 11.7461,6.7031 3.20312,0.832 -2.38282,-11.7852 -7.00391,-10.6446 -3.11719,1.2266 -4.74219,3.9415 -4.74219,3.9415"
     id="path33" />
  <path
     fill-rule="evenodd"
     fill="#B4941F"
     fill-opacity="1"
     d="m 1576.8125,497.50782 c 6.6016,-4.4492 12.9102,-7.7969 18.0703,-12.4141 8.0899,-7.2304 15.6289,-15.1054 22.9688,-23.1132 7.0898,-7.7422 14.0898,-15.4844 23.1718,-20.918 8.3086,-4.9649 17.1094,-6.8828 26.6797,-3.582 8.5977,2.9726 13.5313,1.0351 18.6485,-6.6172 1.9922,-2.9571 4.082,-5.8594 6.1211,-8.7852 0.8906,-1.0976 1.3203,-0.8555 1.3086,0.6992 -0.3477,1.875 -0.8282,3.7461 -1.3985,5.5703 -0.8594,2.2149 0,3.4454 2.0586,3.6954 2.8203,0.4023 5.6992,0.6718 8.543,0.6914 3.9883,0.019 0.047,-5.1563 -0.8516,-7.3321 1.2695,-1.6054 4.75,-5.3984 6.5195,-8.6054 3.6915,3.9336 2.5821,8.6015 2.0508,12.9062 -0.3789,3.332 -1.7812,6.6289 -3.1523,9.75 -3.6485,8.2734 -14.5664,6.6563 -21.0195,3.7109 -1.9688,1.7422 -3.2188,2.7774 -6.4102,5.1211 -4.7891,3.5704 -10.3281,5.1641 -16.1992,2.9688 -11.2696,-4.2383 -21.418,-1.0078 -30.4297,5.4062 -7.6406,5.4375 -14.3711,12.1836 -21.3399,18.5235 -4.3007,3.957 -8.1992,8.4453 -12.6093,12.3281 -6.0899,5.4531 -13.6914,8.0547 -22.7305,9.9961"
     id="path34" />
  <path
     fill-rule="evenodd"
     fill="#B4941F"
     fill-opacity="1"
     d="m 1499.0625,132.32031 c 1.8398,-7.66797 3.4883,-15.39843 5.6094,-23.00781 1.1523,-3.98047 2.7304,-7.83984 4.6992,-11.492191 1.7227,-3.23047 4.4219,-6.36718 8.5625,-4.92968 4.0508,1.28125 6.8203,5.05078 6.8203,9.300781 0,0.0586 -0.012,0.12109 -0.012,0.17187 0,2.32813 -0.918,4.66797 -1.5508,7.5586 -1,-0.51954 -1.957,-1.10938 -2.8672,-1.76954 -6.3203,-5.82031 -9.0898,-5.42968 -11.9531,2.8086 -2.2773,6.5625 -3.5703,13.48047 -5.2969,20.24219 l -3.75,15.07031 c 5.4297,4.23828 11.1992,7.8789 15.8399,12.60937 4.6484,4.71875 1.3203,13.50782 -5.1797,15.55078 -6.1133,1.92969 -12.1602,4.04688 -18.1836,6.31641 -3.5391,1.33984 -4.4688,3.75 -3.1367,7.65234 5.2968,15.46875 7.7187,31.53907 8.3984,47.8086 0.2617,6.08984 -0.7187,12.23047 -1.5312,18.1914 -1.5391,-12.5 -2.879,-25.01171 -4.6797,-37.51171 -1.0782,-7.44922 -2.9805,-14.76954 -4.2774,-22.20704 -0.7734,-3.45312 -1.1523,-6.99218 -1.1523,-10.53125 0,-0.41015 0.012,-0.85156 0.012,-1.26171 0.5781,-7.6875 3.9883,-13.70704 11.9492,-16.19922 1.5781,-0.48047 3.0899,-1.21094 4.7188,-1.8711 -4.1094,-6.07031 -6.3907,-5.9375 -13.2188,0.83203 0,-6.26171 1.418,-11.37109 5.1797,-15.91015 1.1406,-1.33203 2.0508,-3.83203 1.5586,-5.26953 -2.8281,-8.21094 -5.918,-16.33985 -9.3789,-24.28907 -1.1289,-2.60156 -2.4492,-5.68359 -7.2695,-3.55078 -1.9102,0.83985 -6.2305,-2.33203 -8.5899,-4.54297 -1.1406,-1.04687 -0.9609,-4.65625 0,-6.36718 4.918,-8.960941 10.0781,-9.660161 15.9102,-0.92188 4.539,6.72266 6.75,14.96094 9.9101,22.5625 0.5703,1.66016 1.0508,3.36719 1.418,5.07813 l 1.4414,-0.1211"
     id="path35" />
  <path
     fill-rule="evenodd"
     fill="#B4941F"
     fill-opacity="1"
     d="m 750.2344,414.81642 c -1.6524,3.7617 -3.0313,7.6719 -5.0117,11.2617 -4.711,8.5586 -11.7696,15.1055 -19.8711,20.2305 -8.2696,5.2187 -16.6993,10.5 -25.711,14.1172 -8.2968,3.3476 -17.4687,4.5781 -26.289,6.6211 -5.6875,1.3437 -11.3985,2.5429 -17.0899,3.8046 l -0.3086,-0.9218 c 0.9102,-0.4571 1.8203,-0.9414 2.75,-1.3633 16.1875,-7.2227 32.5313,-14.2422 48.6407,-21.7227 11.1289,-5.1484 21.6406,-11.5898 30.5703,-20.0781 3.539,-3.3633 5.9492,-7.9609 8.707,-12.0976 1.4805,-2.211 2.5117,-4.7852 4.043,-6.9844 1.6992,-2.418 2.8398,-4.0352 3.9492,-5.3985 5.8906,-7.2109 12,-11.2617 18.4297,-2.3867 5.5976,7.7227 3.8203,18.1953 -0.6602,24.5117 -0.832,1.1797 -1.6797,2.8204 -2.3203,2.461 -6.5391,-1.9414 -14.3906,-6.4375 -19.8281,-12.0547 z m 6.8789,-7.2774 c 3.5898,2.9493 7.3281,5.5469 11.7383,6.6993 3.2109,0.8359 -2.3789,-11.7852 -7,-10.6446 -3.1172,1.2305 -4.7383,3.9453 -4.7383,3.9453"
     id="path36" />
</svg>
